<svg xmlns="http://www.w3.org/2000/svg" viewBox="0 0 64 64">
  <defs>
    <linearGradient id="galileoGrad" x1="0%" y1="0%" x2="100%" y2="100%">
      <stop offset="0%" style="stop-color:#1E3A5F;stop-opacity:1" />
      <stop offset="100%" style="stop-color:#2E5A8F;stop-opacity:1" />
    </linearGradient>
  </defs>
  <!-- Background circle -->
  <circle cx="32" cy="32" r="30" fill="url(#galileoGrad)"/>
  <!-- G letter stylized -->
  <path d="M32 14C21.507 14 13 22.507 13 33c0 10.493 8.507 19 19 19 10.493 0 19-8.507 19-19h-9c0 5.523-4.477 10-10 10s-10-4.477-10-10 4.477-10 10-10c2.761 0 5.261 1.12 7.071 2.929l6.364-6.364C41.952 16.082 37.239 14 32 14z" fill="#FFFFFF"/>
  <!-- Card chip design -->
  <rect x="32" y="28" width="10" height="10" rx="1" fill="#F0B429"/>
  <line x1="34" y1="28" x2="34" y2="38" stroke="#1E3A5F" stroke-width="0.5"/>
  <line x1="37" y1="28" x2="37" y2="38" stroke="#1E3A5F" stroke-width="0.5"/>
  <line x1="40" y1="28" x2="40" y2="38" stroke="#1E3A5F" stroke-width="0.5"/>
  <line x1="32" y1="31" x2="42" y2="31" stroke="#1E3A5F" stroke-width="0.5"/>
  <line x1="32" y1="35" x2="42" y2="35" stroke="#1E3A5F" stroke-width="0.5"/>
</svg>
